<svg width="33" height="25" viewBox="0 0 33 25" fill="none" xmlns="http://www.w3.org/2000/svg">
<path d="M10.9893 1.10807L18.0105 5.16227C18.2053 5.27358 18.4529 5.20641 18.5651 5.01354L18.7676 4.66233C18.8799 4.46946 18.8127 4.22093 18.6198 4.10866L11.5977 0.0544559C11.4038 -0.0578143 11.1553 0.00935575 11.044 0.20223L10.8415 0.553435C10.7293 0.747269 10.7955 0.995799 10.9893 1.10807Z" fill="#5A189A"/>
<path d="M4.90822 11.6413L11.9304 15.6965C12.1242 15.8078 12.3727 15.7416 12.4841 15.5487L12.6865 15.1984C12.7988 15.0056 12.7326 14.7561 12.5388 14.6448L5.51659 10.5906C5.32275 10.4783 5.07422 10.5455 4.96291 10.7383L4.76044 11.0895C4.64721 11.2805 4.71342 11.529 4.90822 11.6413Z" fill="#5A189A"/>
<path d="M29.6702 16.5956L15.6163 9.31149L17.5057 6.03935C17.617 5.84647 17.5508 5.59698 17.3588 5.48567L11.0372 1.83641C10.8443 1.7251 10.5948 1.79227 10.4835 1.98514L6.02339 9.70972C5.91304 9.90259 5.97925 10.1521 6.17213 10.2634L12.4928 13.9117C12.6857 14.024 12.9352 13.9568 13.0456 13.7639L14.9359 10.4918L28.2702 19.0214C28.4582 19.1414 28.7029 19.0819 28.8142 18.888L29.8285 17.132C29.9389 16.9411 29.8679 16.6993 29.6702 16.5956Z" fill="#5A189A"/>
<path d="M31.8864 17.6214L31.1849 17.2164C30.993 17.1042 30.7425 17.1713 30.6312 17.3642L29.4135 19.4705C29.3032 19.6634 29.3694 19.9128 29.5623 20.0232L30.2637 20.4281C30.4566 20.5404 30.7051 20.4742 30.8174 20.2804L32.0341 18.1741C32.1464 17.9812 32.0802 17.7317 31.8864 17.6214Z" fill="#5A189A"/>
<path d="M16.7139 20.1211H15.8685C15.975 20.0021 16.046 19.8486 16.046 19.6758V19.008C16.046 18.6404 15.7457 18.3391 15.3781 18.3391H2.00551C1.63703 18.3391 1.33669 18.6404 1.33669 19.008V19.6758C1.33669 19.8486 1.4077 20.0021 1.51517 20.1211H0.668824C0.299387 20.1211 0 20.4233 0 20.7909V23.4652C0 23.8327 0.300347 24.134 0.668824 24.134H16.7158C17.0852 24.134 17.3837 23.8327 17.3837 23.4652V20.7889C17.3837 20.4233 17.0833 20.1211 16.7139 20.1211ZM15.7629 23.2119H1.68117C1.29447 23.2119 0.977807 22.8952 0.977807 22.5095V21.8051C0.978766 21.4194 1.29447 21.1008 1.68117 21.1027H15.7629C16.1516 21.1027 16.4682 21.4194 16.4673 21.8042L16.4682 22.5095C16.4673 22.8952 16.1516 23.2119 15.7629 23.2119Z" fill="#5A189A"/>
</svg>
