<svg width="26" height="25" viewBox="0 0 26 25" fill="none" xmlns="http://www.w3.org/2000/svg">
<rect width="25.1429" height="25" fill="#5A189A"/>
<path d="M8.0957 4.65351V15.0617C8.0957 15.3697 8.33822 15.6195 8.63747 15.6195H16.9825C17.2818 15.6195 17.5243 15.3698 17.5243 15.0617V4.65351C17.5243 4.34547 17.2818 4.0957 16.9825 4.0957H8.63747C8.33822 4.0957 8.0957 4.34547 8.0957 4.65351ZM16.4408 14.5039H9.17923V13.8157C9.74587 12.394 10.6311 11.4255 11.8116 10.9363C11.9947 10.8605 12.1234 10.688 12.1472 10.4862C12.1711 10.2844 12.0864 10.0853 11.9263 9.96642C11.5318 9.67353 11.2963 9.20071 11.2963 8.70154C11.2963 7.84216 11.9754 7.14296 12.81 7.14296C13.6447 7.14296 14.3238 7.84216 14.3238 8.70154C14.3238 9.20071 14.0883 9.67353 13.6938 9.96642C13.5337 10.0853 13.449 10.2845 13.4728 10.4862C13.4967 10.688 13.6253 10.8605 13.8084 10.9363C14.9889 11.4255 15.8742 12.394 16.4408 13.8157V14.5039ZM16.4408 5.21131V11.61C16.0076 11.0549 15.5005 10.6026 14.9214 10.2568C15.2329 9.80795 15.4073 9.26455 15.4073 8.70154C15.4073 7.22698 14.2423 6.02742 12.8101 6.02742C11.3779 6.02742 10.2129 7.22706 10.2129 8.70154C10.2129 9.26455 10.3873 9.80795 10.6988 10.2568C10.1197 10.6025 9.61264 11.0549 9.17938 11.61V5.21131H16.4408Z" fill="black"/>
<path d="M8.0957 4.65351V15.0617C8.0957 15.3697 8.33822 15.6195 8.63747 15.6195H16.9825C17.2818 15.6195 17.5243 15.3698 17.5243 15.0617V4.65351C17.5243 4.34547 17.2818 4.0957 16.9825 4.0957H8.63747C8.33822 4.0957 8.0957 4.34547 8.0957 4.65351ZM16.4408 14.5039H9.17923V13.8157C9.74587 12.394 10.6311 11.4255 11.8116 10.9363C11.9947 10.8605 12.1234 10.688 12.1472 10.4862C12.1711 10.2844 12.0864 10.0853 11.9263 9.96642C11.5318 9.67353 11.2963 9.20071 11.2963 8.70154C11.2963 7.84216 11.9754 7.14296 12.81 7.14296C13.6447 7.14296 14.3238 7.84216 14.3238 8.70154C14.3238 9.20071 14.0883 9.67353 13.6938 9.96642C13.5337 10.0853 13.449 10.2845 13.4728 10.4862C13.4967 10.688 13.6253 10.8605 13.8084 10.9363C14.9889 11.4255 15.8742 12.394 16.4408 13.8157V14.5039ZM16.4408 5.21131V11.61C16.0076 11.0549 15.5005 10.6026 14.9214 10.2568C15.2329 9.80795 15.4073 9.26455 15.4073 8.70154C15.4073 7.22698 14.2423 6.02742 12.8101 6.02742C11.3779 6.02742 10.2129 7.22706 10.2129 8.70154C10.2129 9.26455 10.3873 9.80795 10.6988 10.2568C10.1197 10.6025 9.61264 11.0549 9.17938 11.61V5.21131H16.4408Z" fill="white"/>
<rect x="4" y="18" width="17" height="1" fill="white"/>
<rect x="4" y="20" width="17" height="1" fill="white"/>
</svg>
