<svg width="23" height="23" viewBox="0 0 23 23" fill="none" xmlns="http://www.w3.org/2000/svg">
<g clip-path="url(#clip0_45_443)">
<path d="M11.5 0.000793457C5.14939 0.000793457 0 5.14917 0 11.5003C0 17.8514 5.14888 22.9998 11.5 22.9998C17.8516 22.9998 23 17.8514 23 11.5003C23 5.14917 17.8516 0.000793457 11.5 0.000793457ZM11.5 3.43928C13.6014 3.43928 15.3042 5.1426 15.3042 7.24297C15.3042 9.34385 13.6014 11.0467 11.5 11.0467C9.39963 11.0467 7.69681 9.34385 7.69681 7.24297C7.69681 5.1426 9.39963 3.43928 11.5 3.43928ZM11.4975 19.9932C9.40165 19.9932 7.48212 19.2299 6.00156 17.9666C5.64089 17.6589 5.43277 17.2079 5.43277 16.7345C5.43277 14.6044 7.15681 12.8995 9.28749 12.8995H13.7135C15.8447 12.8995 17.5622 14.6044 17.5622 16.7345C17.5622 17.2084 17.3551 17.6584 16.9939 17.9661C15.5138 19.2299 13.5938 19.9932 11.4975 19.9932Z" fill="#5A189A"/>
</g>
<defs>
<clipPath id="clip0_45_443">
<rect width="23" height="23" fill="white"/>
</clipPath>
</defs>
</svg>
