<svg width="18" height="18" viewBox="0 0 18 18" fill="none" xmlns="http://www.w3.org/2000/svg">
<path d="M17.7778 8.8889C17.7778 3.97969 13.7981 0 8.8889 0C3.97969 0 0 3.97969 0 8.8889C0 13.3256 3.25054 17.003 7.50001 17.6698V11.4583H5.24306V8.8889H7.50001V6.93057C7.50001 4.70278 8.82705 3.47223 10.8575 3.47223C11.83 3.47223 12.8472 3.64584 12.8472 3.64584V5.83334H11.7264C10.6221 5.83334 10.2778 6.51853 10.2778 7.22149V8.8889H12.7431L12.349 11.4583H10.2778V17.6698C14.5273 17.003 17.7778 13.3256 17.7778 8.8889Z" fill="#1877F2"/>
<path d="M12.3489 11.4584L12.743 8.88891H10.2777V7.22149C10.2777 6.51855 10.6221 5.83335 11.7263 5.83335H12.8472V3.64585C12.8472 3.64585 11.8299 3.47224 10.8574 3.47224C8.82697 3.47224 7.49992 4.70279 7.49992 6.93058V8.88891H5.24298V11.4584H7.49992V17.6698C7.95938 17.7418 8.42375 17.7779 8.88882 17.7778C9.36132 17.7778 9.82515 17.7408 10.2777 17.6698V11.4584H12.3489Z" fill="white"/>
</svg>
