<svg width="18" height="18" viewBox="0 0 18 18" fill="none" xmlns="http://www.w3.org/2000/svg">
<path d="M8.89421 0C5.18217 0 4.09654 0.00384182 3.88552 0.0214044C3.12374 0.0849316 2.64972 0.205263 2.1333 0.463213C1.73532 0.661479 1.42145 0.891302 1.11168 1.21347C0.547526 1.80099 0.205617 2.5238 0.0818455 3.38299C0.0216694 3.80011 0.00416369 3.88518 0.000607839 6.01574C-0.000759798 6.72593 0.000607839 7.66058 0.000607839 8.91425C0.000607839 12.6353 0.00471075 13.7234 0.02249 13.9347C0.0840337 14.6784 0.200283 15.1462 0.446457 15.658C0.916924 16.6377 1.81546 17.3731 2.87401 17.6475C3.24054 17.7422 3.64536 17.7943 4.16506 17.819C4.38525 17.8286 6.62954 17.8355 8.8752 17.8355C11.1209 17.8355 13.3665 17.8328 13.5812 17.8218C14.183 17.7934 14.5324 17.7463 14.9188 17.6462C15.4437 17.5111 15.9328 17.2628 16.3521 16.9184C16.7714 16.5741 17.1107 16.1421 17.3463 15.6525C17.5877 15.1531 17.7101 14.6674 17.7655 13.9625C17.7776 13.8089 17.7826 11.3587 17.7826 8.91192C17.7826 6.46468 17.7771 4.01909 17.7651 3.86542C17.709 3.14919 17.5866 2.66759 17.3375 2.15855C17.133 1.74185 16.906 1.43067 16.5764 1.11248C15.9883 0.548831 15.2689 0.205812 14.4115 0.0817758C13.9962 0.0215416 13.9134 0.00370461 11.7881 0H8.89421Z" fill="url(#paint0_radial_1_230)"/>
<path d="M8.89421 0C5.18217 0 4.09654 0.00384182 3.88552 0.0214044C3.12374 0.0849316 2.64972 0.205263 2.1333 0.463213C1.73532 0.661479 1.42145 0.891302 1.11168 1.21347C0.547526 1.80099 0.205617 2.5238 0.0818455 3.38299C0.0216694 3.80011 0.00416369 3.88518 0.000607839 6.01574C-0.000759798 6.72593 0.000607839 7.66058 0.000607839 8.91425C0.000607839 12.6353 0.00471075 13.7234 0.02249 13.9347C0.0840337 14.6784 0.200283 15.1462 0.446457 15.658C0.916924 16.6377 1.81546 17.3731 2.87401 17.6475C3.24054 17.7422 3.64536 17.7943 4.16506 17.819C4.38525 17.8286 6.62954 17.8355 8.8752 17.8355C11.1209 17.8355 13.3665 17.8328 13.5812 17.8218C14.183 17.7934 14.5324 17.7463 14.9188 17.6462C15.4437 17.5111 15.9328 17.2628 16.3521 16.9184C16.7714 16.5741 17.1107 16.1421 17.3463 15.6525C17.5877 15.1531 17.7101 14.6674 17.7655 13.9625C17.7776 13.8089 17.7826 11.3587 17.7826 8.91192C17.7826 6.46468 17.7771 4.01909 17.7651 3.86542C17.709 3.14919 17.5866 2.66759 17.3375 2.15855C17.133 1.74185 16.906 1.43067 16.5764 1.11248C15.9883 0.548831 15.2689 0.205812 14.4115 0.0817758C13.9962 0.0215416 13.9134 0.00370461 11.7881 0H8.89421Z" fill="url(#paint1_radial_1_230)"/>
<path d="M8.89008 2.33255C7.10723 2.33255 6.88348 2.34037 6.18325 2.37234C5.48439 2.40445 5.00736 2.51545 4.58996 2.67831C4.15819 2.84653 3.79194 3.07155 3.42705 3.43776C3.06189 3.80383 2.8376 4.17127 2.66938 4.6043C2.50663 5.02319 2.39586 5.50191 2.3644 6.20277C2.33322 6.90527 2.32501 7.12988 2.32501 8.91852C2.32501 10.7072 2.33294 10.931 2.36467 11.6335C2.39681 12.3346 2.50745 12.8132 2.66966 13.2319C2.83747 13.6651 3.06176 14.0325 3.42678 14.3986C3.79153 14.7649 4.15778 14.9905 4.58927 15.1587C5.00695 15.3216 5.48412 15.4326 6.18284 15.4647C6.88307 15.4967 7.10668 15.5045 8.88939 15.5045C10.6724 15.5045 10.8954 15.4967 11.5957 15.4647C12.2945 15.4326 12.7721 15.3216 13.1898 15.1587C13.6214 14.9905 13.9871 14.7649 14.3519 14.3986C14.717 14.0325 14.9413 13.6651 15.1095 13.2321C15.2709 12.8132 15.3817 12.3344 15.4145 11.6336C15.446 10.9311 15.4542 10.7072 15.4542 8.91852C15.4542 7.12988 15.446 6.90541 15.4145 6.20291C15.3817 5.50178 15.2709 5.02319 15.1095 4.60444C14.9413 4.17127 14.717 3.80383 14.3519 3.43776C13.9867 3.07141 13.6216 2.84639 13.1894 2.67831C12.7709 2.51545 12.2936 2.40445 11.5947 2.37234C10.8945 2.34037 10.6716 2.33255 8.88816 2.33255H8.89008ZM8.30117 3.5194C8.47596 3.51912 8.67098 3.5194 8.89008 3.5194C10.6428 3.5194 10.8506 3.52571 11.5427 3.55727C12.1828 3.58663 12.5302 3.69393 12.7616 3.78407C13.0679 3.90344 13.2863 4.04614 13.516 4.27665C13.7457 4.50716 13.888 4.72669 14.0072 5.03403C14.0971 5.26592 14.2042 5.61442 14.2333 6.25656C14.2648 6.95083 14.2716 7.15938 14.2716 8.91701C14.2716 10.6746 14.2648 10.8832 14.2333 11.5775C14.204 12.2196 14.0971 12.5681 14.0072 12.8C13.8882 13.1073 13.7457 13.3262 13.516 13.5566C13.2862 13.7871 13.0681 13.9298 12.7616 14.0491C12.5305 14.1397 12.1828 14.2467 11.5427 14.2761C10.8507 14.3076 10.6428 14.3145 8.89008 14.3145C7.13718 14.3145 6.92943 14.3076 6.23741 14.2761C5.59736 14.2464 5.24998 14.1391 5.01844 14.049C4.71209 13.9296 4.49326 13.7869 4.2635 13.5564C4.03374 13.3259 3.8915 13.1069 3.77225 12.7994C3.68239 12.5676 3.57531 12.2191 3.54618 11.5769C3.51472 10.8827 3.50843 10.6741 3.50843 8.91537C3.50843 7.15664 3.51472 6.94918 3.54618 6.25491C3.57544 5.61278 3.68239 5.26427 3.77225 5.03211C3.89123 4.72477 4.03374 4.50524 4.2635 4.27473C4.49326 4.04422 4.71209 3.90152 5.01844 3.78188C5.24984 3.69132 5.59736 3.5843 6.23741 3.5548C6.843 3.52736 7.07769 3.51912 8.30117 3.51775V3.5194ZM12.3942 4.61294C12.2384 4.61294 12.0861 4.6593 11.9566 4.74616C11.827 4.83301 11.726 4.95645 11.6664 5.10088C11.6068 5.24531 11.5912 5.40423 11.6216 5.55754C11.6521 5.71086 11.7271 5.85168 11.8373 5.9622C11.9475 6.07271 12.0879 6.14796 12.2407 6.17843C12.3935 6.20889 12.5519 6.1932 12.6959 6.13334C12.8398 6.07348 12.9628 5.97214 13.0494 5.84214C13.1359 5.71213 13.182 5.55931 13.182 5.40299C13.182 4.96667 12.8291 4.61267 12.3942 4.61267V4.61294ZM8.89008 5.53635C7.02831 5.53635 5.51885 7.05071 5.51885 8.91852C5.51885 10.7863 7.02831 12.3 8.89008 12.3C10.7518 12.3 12.2609 10.7863 12.2609 8.91852C12.2609 7.05071 10.7517 5.53635 8.88994 5.53635H8.89008ZM8.89008 6.7232C10.0985 6.7232 11.0783 7.70602 11.0783 8.91852C11.0783 10.1309 10.0985 11.1138 8.89008 11.1138C7.6815 11.1138 6.70186 10.1309 6.70186 8.91852C6.70186 7.70602 7.6815 6.7232 8.89008 6.7232Z" fill="white"/>
<defs>
<radialGradient id="paint0_radial_1_230" cx="0" cy="0" r="1" gradientUnits="userSpaceOnUse" gradientTransform="translate(4.72353 19.2092) rotate(-90) scale(17.6763 16.3916)">
<stop stop-color="#FFDD55"/>
<stop offset="0.1" stop-color="#FFDD55"/>
<stop offset="0.5" stop-color="#FF543E"/>
<stop offset="1" stop-color="#C837AB"/>
</radialGradient>
<radialGradient id="paint1_radial_1_230" cx="0" cy="0" r="1" gradientUnits="userSpaceOnUse" gradientTransform="translate(-2.97868 1.28484) rotate(78.7133) scale(7.90048 32.477)">
<stop stop-color="#3771C8"/>
<stop offset="0.128" stop-color="#3771C8"/>
<stop offset="1" stop-color="#6600FF" stop-opacity="0"/>
</radialGradient>
</defs>
</svg>
