<svg width="10" height="12" viewBox="0 0 10 12" fill="none" xmlns="http://www.w3.org/2000/svg">
<path fill-rule="evenodd" clip-rule="evenodd" d="M1.46456 1.45584C2.40223 0.523683 3.67398 0 5.00005 0C6.32612 0 7.59788 0.523683 8.53555 1.45584C9.47322 2.38801 10 3.65229 10 4.97056C10 6.28884 9.47322 7.55312 8.53555 8.48528L5.00005 12L1.46456 8.48528C1.00024 8.02374 0.631918 7.47579 0.380628 6.87274C0.129338 6.26968 0 5.62332 0 4.97056C0 4.31781 0.129338 3.67145 0.380628 3.06839C0.631918 2.46533 1.00024 1.91739 1.46456 1.45584ZM5.00005 6.39065C5.37891 6.39065 5.74225 6.24103 6.01014 5.97472C6.27804 5.7084 6.42854 5.34719 6.42854 4.97056C6.42854 4.59393 6.27804 4.23273 6.01014 3.96641C5.74225 3.70009 5.37891 3.55047 5.00005 3.55047C4.6212 3.55047 4.25786 3.70009 3.98996 3.96641C3.72207 4.23273 3.57157 4.59393 3.57157 4.97056C3.57157 5.34719 3.72207 5.7084 3.98996 5.97472C4.25786 6.24103 4.6212 6.39065 5.00005 6.39065Z" fill="#3F3F46"/>
</svg>
