<svg width="24" height="20" viewBox="0 0 24 20" fill="none" xmlns="http://www.w3.org/2000/svg">
<path fill-rule="evenodd" clip-rule="evenodd" d="M5.82838 17.4956V10.2819H9.07375C10.4493 10.5281 11.8248 11.2745 13.2003 12.14H15.7208C16.8619 12.2084 17.4597 13.3651 16.3499 14.1251C15.4668 14.7738 14.3003 14.7367 13.1046 14.6292C12.28 14.5882 12.2449 15.6961 13.1046 15.7C13.4035 15.7234 13.7279 15.6531 14.0112 15.6531C15.5039 15.6511 16.7309 15.3659 17.4832 14.1877L17.8603 13.3065L21.6097 11.4484C23.4855 10.8309 24.818 12.7926 23.4366 14.1584C20.7207 16.1337 17.9365 17.7593 15.0877 19.0723C13.0186 20.3306 10.9495 20.2876 8.88227 19.0723L5.82838 17.4956ZM14.865 1.52272C15.5743 0.782204 16.0705 0.14329 17.1647 0.0182426C19.2163 -0.218175 21.1037 1.88418 20.0681 3.95333C19.7731 4.54339 19.1733 5.24288 18.509 5.93064C17.7802 6.68483 16.9732 7.42534 16.4066 7.9861L14.865 9.51598L13.5911 8.28895C12.0593 6.81378 9.56026 4.95566 9.4782 2.65401C9.41958 1.04207 10.6935 0.00847325 12.155 0.0280119C13.4641 0.0436428 14.0131 0.69428 14.865 1.52272ZM0 9.58827H4.85145V18.2204H0V9.58827Z" fill="#5A189A"/>
</svg>
