<svg width="23" height="23" viewBox="0 0 23 23" fill="none" xmlns="http://www.w3.org/2000/svg">
<path d="M21.7319 20.8056C21.6966 20.8056 21.6638 20.8081 21.6285 20.8132L15.4313 21.6152C15.1135 21.6556 14.8915 21.3075 15.063 21.0351C15.1564 20.8913 15.2472 20.7451 15.338 20.5988C15.5776 20.2103 15.2572 19.6933 14.8133 19.6933C14.7831 19.6933 14.7528 19.6958 14.72 19.7009L6.59829 20.9216L5.62722 21.0679L2.97883 21.4665C2.67868 21.5119 2.4769 21.7666 2.50212 22.0718C2.51221 22.208 2.5677 22.3366 2.65598 22.4325C2.75942 22.546 2.90319 22.609 3.05955 22.609C3.08981 22.609 3.12008 22.6065 3.15287 22.6015L12.8334 21.1461C13.1638 21.0957 13.3908 21.469 13.1966 21.7414C13.1335 21.8271 13.0704 21.9154 13.0074 22.0012C12.8334 22.2383 12.8737 22.6343 13.0755 22.8386C13.1789 22.9445 13.3101 23 13.4488 23C13.4639 23 13.4816 23 13.4967 22.9974H13.4992H13.5018L21.8581 21.9331H21.8606H21.8631C22.0069 21.9104 22.133 21.8271 22.2162 21.6985C22.307 21.5572 22.3398 21.3832 22.2995 21.2268C22.2339 20.9721 22.0119 20.8056 21.7319 20.8056Z" fill="#5A189A"/>
<path d="M0.834882 21.3706C0.75417 21.4791 0.877736 21.6203 0.996282 21.5572C2.34825 20.8182 3.70772 20.4777 4.45434 20.397C4.7217 20.3692 4.94364 20.175 5.00165 19.9127C5.35981 18.3237 7.59457 14.6639 7.59457 14.6639L4.60063 12.4619C4.60063 12.4619 1.77314 15.6728 0.36067 16.49C0.128646 16.6237 0.00253289 16.891 0.0554754 17.1558C0.199245 17.8898 0.30518 19.2569 0.00250766 20.7627C-0.022715 20.8938 0.148799 20.9695 0.226965 20.861L3.87419 15.9098C4.00533 15.7332 4.25506 15.703 4.42405 15.8468L4.44672 15.867C4.59806 15.9956 4.62583 16.2201 4.50726 16.379L0.834882 21.3706Z" fill="#5A189A"/>
<path d="M4.96395 11.7859L8.12943 14.1165C8.40688 14.3208 8.80035 14.2653 9.00718 13.9879C9.65288 13.1278 11.1082 11.4404 12.9268 10.9409L17.2625 4.93542C17.4694 4.65545 17.4088 4.25945 17.1289 4.05262L11.7892 0.122927C11.5092 -0.0838997 11.1133 -0.0233652 10.9064 0.256607L6.57569 6.25961C6.63874 8.14375 5.45832 10.0355 4.82775 10.9082C4.62597 11.1882 4.6865 11.5791 4.96395 11.7859Z" fill="#5A189A"/>
</svg>
