<svg width="24" height="18" viewBox="0 0 24 18" fill="none" xmlns="http://www.w3.org/2000/svg">
<path d="M23.5073 3.39716C23.2359 2.37518 22.4362 1.57033 21.4207 1.29719C19.5804 0.800781 12.2004 0.800781 12.2004 0.800781C12.2004 0.800781 4.82048 0.800781 2.98007 1.29719C1.96453 1.57033 1.16471 2.37518 0.893478 3.39716C0.400391 5.24953 0.400391 9.11447 0.400391 9.11447C0.400391 9.11447 0.400391 12.9792 0.893478 14.8318C1.16471 15.8539 1.96453 16.6585 2.97997 16.932C4.82037 17.4282 12.2003 17.4282 12.2003 17.4282C12.2003 17.4282 19.5803 17.4282 21.4206 16.932C22.4361 16.6586 23.2358 15.8539 23.5072 14.8319C24.0004 12.9793 24.0004 9.11457 24.0004 9.11457C24.0004 9.11457 24.0004 5.24963 23.5072 3.39726" fill="#FF0000"/>
<path d="M9.78662 12.6235L15.9548 9.11467L9.78662 5.60544V12.6235Z" fill="white"/>
</svg>
